HIERARCHY
ROOT Hips
{
 OFFSET 0.000000 0.000000 0.000000
 CHANNELS 6 Xposition Yposition Zposition Yrotation Xrotation Zrotation
 JOINT Chest
 {
  OFFSET 0.000000 9.585900 0.002600
  CHANNELS 3 Yrotation Xrotation Zrotation
  JOINT Chest2
  {
   OFFSET 0.000000 9.601200 -0.005300
   CHANNELS 3 Yrotation Xrotation Zrotation
   JOINT Chest3
   {
    OFFSET 0.000000 9.561800 0.000000
    CHANNELS 3 Yrotation Xrotation Zrotation
    JOINT Chest4
    {
     OFFSET 0.000000 9.552100 0.000000
     CHANNELS 3 Yrotation Xrotation Zrotation
     JOINT Neck
     {
      OFFSET 0.000000 14.453000 0.000000
      CHANNELS 3 Yrotation Xrotation Zrotation
      JOINT Head
      {
       OFFSET 0.000000 8.936500 -0.011300
       CHANNELS 3 Yrotation Xrotation Zrotation
       End Site
       {
        OFFSET 0.000000 17.073600 -0.006000
       }
      }
     }
     JOINT RightCollar
     {
      OFFSET -2.921100 9.558500 0.000000
      CHANNELS 3 Yrotation Xrotation Zrotation
      JOINT RightShoulder
      {
       OFFSET -13.519700 0.000000 0.000000
       CHANNELS 3 Yrotation Xrotation Zrotation
       JOINT RightElbow
       {
        OFFSET 0.000000 -29.696600 0.000000
        CHANNELS 3 Yrotation Xrotation Zrotation
        JOINT RightWrist
        {
         OFFSET 0.000000 -24.004700 0.000000
         CHANNELS 3 Yrotation Xrotation Zrotation
         End Site
         {
          OFFSET 0.000000 -17.728500 0.000000
         }
        }
       }
      }
     }
     JOINT LeftCollar
     {
      OFFSET 2.921100 9.558500 0.000000
      CHANNELS 3 Yrotation Xrotation Zrotation
      JOINT LeftShoulder
      {
       OFFSET 13.519700 0.000000 0.000000
       CHANNELS 3 Yrotation Xrotation Zrotation
       JOINT LeftElbow
       {
        OFFSET 0.000000 -29.696600 0.000000
        CHANNELS 3 Yrotation Xrotation Zrotation
        JOINT LeftWrist
        {
         OFFSET 0.000000 -24.004700 0.000000
         CHANNELS 3 Yrotation Xrotation Zrotation
         End Site
         {
          OFFSET 0.000000 -17.728500 0.000000
         }
        }
       }
      }
     }
    }
   }
  }
 }
 JOINT RightHip
 {
  OFFSET -7.771700 -0.012900 -0.001300
  CHANNELS 3 Yrotation Xrotation Zrotation
  JOINT RightKnee
  {
   OFFSET 0.000000 -40.869800 0.001200
   CHANNELS 3 Yrotation Xrotation Zrotation
   JOINT RightAnkle
   {
    OFFSET 0.000000 -39.717900 0.002100
    CHANNELS 3 Yrotation Xrotation Zrotation
    JOINT RightToe
    {
     OFFSET 0.000000 -4.965400 11.033500
     CHANNELS 3 Yrotation Xrotation Zrotation
     End Site
     {
      OFFSET 0.000000 -1.423100 5.872300
     }
    }
   }
  }
 }
 JOINT LeftHip
 {
  OFFSET 7.771700 -0.012900 -0.001300
  CHANNELS 3 Yrotation Xrotation Zrotation
  JOINT LeftKnee
  {
   OFFSET 0.000000 -40.869800 0.001200
   CHANNELS 3 Yrotation Xrotation Zrotation
   JOINT LeftAnkle
   {
    OFFSET 0.000000 -39.717900 0.002100
    CHANNELS 3 Yrotation Xrotation Zrotation
    JOINT LeftToe
    {
     OFFSET 0.000000 -4.965400 11.033500
     CHANNELS 3 Yrotation Xrotation Zrotation
     End Site
     {
      OFFSET 0.000000 -1.423100 5.872300
     }
    }
   }
  }
 }
}
MOTION
Frames: 9
Frame Time: 0.008333
-20.874057 57.987043 13.314878 175.542985 -47.428360 -2.458885 3.609862 22.173339 2.728232 1.865372 12.674031 1.451923 2.452706 15.858440 1.917238 1.862420 12.667557 1.458873 -1.136784 15.660088 -1.507964 -1.619100 -6.753650 -2.389637 3.048114 1.455855 0.470583 2.606840 -16.586287 -9.272891 -20.049586 -58.155408 62.694546 27.273759 7.093246 -1.279474 -9.677698 1.098122 -1.042760 -3.787538 -18.484459 12.047188 24.326060 -50.603819 -58.059490 -8.004590 10.697899 4.929520 1.930743 -24.724298 -2.641884 -33.305756 73.759003 -37.622204 6.590541 -13.339505 10.805061 -0.005330 -0.105482 0.046378 -2.031444 -21.482657 7.250281 85.328392 84.061681 85.750796 -0.115503 -22.552038 -15.878458 0.048774 0.089610 0.050214
-20.871952 57.987076 13.314052 175.558570 -47.422435 -2.491466 3.629881 22.174700 2.769129 1.864090 12.675920 1.452176 2.458363 15.862385 1.921470 1.858393 12.668857 1.459054 -1.142600 15.653795 -1.503801 -1.628926 -6.754538 -2.377518 3.052478 1.439995 0.459200 2.597969 -16.575292 -9.262792 -20.056708 -58.160948 62.693290 27.280661 7.100147 -1.276897 -9.681908 1.086953 -1.041802 -3.782809 -18.483694 12.043724 24.330215 -50.609340 -58.034933 -8.025821 10.691498 4.908160 1.946393 -24.724608 -2.606400 -33.397328 73.742881 -37.696937 6.573822 -13.344871 10.800785 0.017195 -0.106466 0.049613 -2.015653 -21.496436 7.289229 85.344471 84.085086 85.784991 -0.138450 -22.550310 -15.866595 0.064044 0.082719 0.053016
-20.874824 57.987004 13.312896 175.568166 -47.415648 -2.491080 3.634591 22.175710 2.772308 1.898020 12.693269 1.470458 2.421180 15.844759 1.911163 1.879472 12.678699 1.465031 -1.169845 15.638722 -1.502790 -1.629073 -6.748948 -2.370912 3.031986 1.421176 0.452712 2.590340 -16.570849 -9.257942 -20.055212 -58.161733 62.694884 27.286360 7.104848 -1.275197 -9.708627 1.070111 -1.040153 -3.777196 -18.482029 12.041525 24.330162 -50.612477 -58.030033 -8.037426 10.681384 4.931954 1.962767 -24.727792 -2.609619 -33.439093 73.735661 -37.733927 6.567275 -13.351761 10.799884 0.028047 -0.105698 0.049888 -2.002090 -21.506224 7.296027 85.333017 84.092423 85.759229 -0.149988 -22.549714 -15.838239 0.060654 0.084235 0.041081
-20.876283 57.986853 13.312259 175.574292 -47.406524 -2.498075 3.634874 22.169257 2.777352 1.916048 12.706034 1.478504 2.409692 15.837331 1.909571 1.892773 12.689913 1.468667 -1.175226 15.634932 -1.499176 -1.642155 -6.757261 -2.365825 3.022282 1.399796 0.447189 2.597198 -16.550616 -9.250480 -20.072757 -58.179071 62.691456 27.291009 7.107467 -1.273385 -9.712551 1.056224 -1.040502 -3.782993 -18.484850 12.042154 24.323269 -50.617148 -58.031531 -8.041132 10.681000 4.932465 1.976949 -24.733832 -2.601298 -33.476682 73.727511 -37.777064 6.583199 -13.362107 10.795396 0.005068 -0.104705 0.060906 -1.991049 -21.517055 7.305705 85.313798 84.103357 85.747879 -0.150156 -22.551201 -15.844678 0.064675 0.085066 0.049037
-20.880148 57.986879 13.311356 175.585531 -47.397824 -2.495705 3.643247 22.174044 2.781086 1.918662 12.708890 1.479816 2.441462 15.861528 1.918689 1.869509 12.671349 1.468679 -1.168425 15.646546 -1.496291 -1.674895 -6.789161 -2.352086 3.056513 1.373810 0.429927 2.552976 -16.511048 -9.215302 -20.086596 -58.213881 62.691202 27.293294 7.110347 -1.289253 -9.711365 1.039462 -1.031172 -3.770534 -18.486579 12.033790 24.290292 -50.621855 -58.027555 -8.042397 10.671263 4.946250 1.988321 -24.739645 -2.609116 -33.504155 73.724761 -37.811336 6.584902 -13.371536 10.802290 -0.007546 -0.102012 0.066677 -1.978968 -21.527832 7.304230 85.281853 84.122591 85.712500 -0.152492 -22.551643 -15.828149 0.069525 0.085235 0.046759
-20.884299 57.987303 13.310257 175.596284 -47.390954 -2.492636 3.650448 22.180880 2.784997 1.921967 12.711049 1.478500 2.439975 15.860489 1.919924 1.878278 12.681175 1.471647 -1.190238 15.625938 -1.492611 -1.676661 -6.782558 -2.349921 3.052180 1.350526 0.420495 2.534346 -16.493223 -9.195125 -20.083836 -58.238676 62.683206 27.299339 7.113864 -1.283630 -9.730842 1.016751 -1.022989 -3.715210 -18.476026 12.019463 24.262229 -50.636816 -58.027749 -8.047876 10.655973 4.956755 1.990525 -24.744951 -2.619431 -33.512002 73.728943 -37.827732 6.580802 -13.382082 10.806096 0.004527 -0.102894 0.062171 -1.966108 -21.536424 7.300036 85.250984 84.131429 85.682896 -0.165660 -22.551112 -15.816598 0.075198 0.084072 0.048901
-20.890469 57.987627 13.309166 175.610791 -47.382128 -2.481706 3.669376 22.197601 2.784671 1.901522 12.697484 1.473135 2.431517 15.853356 1.919575 1.902439 12.699316 1.472947 -1.199752 15.620969 -1.489386 -1.692968 -6.786859 -2.343221 3.033961 1.328801 0.418967 2.529548 -16.474929 -9.180205 -20.076508 -58.262490 62.664496 27.305487 7.122836 -1.267471 -9.751676 0.999325 -1.015783 -3.712281 -18.476785 12.019548 24.259332 -50.641982 -58.026306 -8.049184 10.654247 4.957519 2.008951 -24.751513 -2.642692 -33.544098 73.729487 -37.860310 6.567760 -13.388018 10.818919 -0.003778 -0.109874 0.045015 -1.950894 -21.546978 7.287991 85.186965 84.131744 85.601956 -0.176328 -22.545757 -15.789072 0.061379 0.087402 0.047149
-20.895051 57.987026 13.309329 175.628852 -47.363710 -2.484590 3.666951 22.193888 2.781960 1.891947 12.687479 1.469997 2.450290 15.868454 1.923391 1.925712 12.721386 1.476839 -1.224719 15.595556 -1.484875 -1.704437 -6.796160 -2.339606 3.002758 1.288668 0.418846 2.525620 -16.458748 -9.165454 -20.069932 -58.286729 62.654015 27.299022 7.131356 -1.276947 -9.786529 0.967963 -1.001859 -3.710502 -18.481029 12.018357 24.256831 -50.648609 -58.029627 -8.049826 10.653351 4.964864 2.017213 -24.767059 -2.653260 -33.564575 73.727791 -37.880515 6.550278 -13.392372 10.830397 -0.001092 -0.107069 0.045573 -1.947079 -21.567297 7.282814 85.161165 84.135665 85.570288 -0.176632 -22.546816 -15.779530 0.062252 0.092043 0.043406
-20.898861 57.987386 13.308823 175.631255 -47.352195 -2.480881 3.674629 22.195175 2.784455 1.896356 12.690336 1.470462 2.470292 15.888083 1.931800 1.910105 12.705252 1.477413 -1.229072 15.589385 -1.486780 -1.715603 -6.807715 -2.334753 3.033683 1.280167 0.399434 2.479320 -16.451511 -9.135816 -20.069360 -58.305769 62.643030 27.298386 7.136768 -1.279469 -9.789516 0.962055 -0.999823 -3.712932 -18.484596 12.020075 24.271866 -50.654904 -58.039344 -8.063317 10.656607 4.958082 2.041705 -24.776964 -2.660342 -33.607630 73.724677 -37.914098 6.543455 -13.401574 10.831042 -0.000890 -0.105471 0.046173 -1.942756 -21.579423 7.281228 85.159128 84.137304 85.557636 -0.172455 -22.544923 -15.770752 0.052884 0.093038 0.043013
